# xmcd CD database file
#
# Track frame offsets:
#	150
#	13113
#	25900
#	39390
#	51749
#	66567
#	79306
#	93278
#	106932
#	118881
#	131116
#	145036
#	158511
#	171458
#	183374
#	195930
#	208219
#	221412
#
# Disc length: 3114 seconds
#
# Revision: 0
# Processed by: cddbd v1.5.2PL0 Copyright (c) Steve Scherf et al.
# Submitted via: CDex 1.51
#
DISCID=090c2812
DTITLE=Country - The Ultimate Country Collection [Disc 4]
DYEAR=1900
DGENRE=Country
TTITLE0=Cool Water
TTITLE1=My Queen Of The Prairies
TTITLE2=There's A New Moon Over My Shoulder
TTITLE3=The Prodigal Son
TTITLE4=The Last Round Up
TTITLE5=I Wonder If You Feel The Way I Do
TTITLE6=Can The Circle Be Ubroken?
TTITLE7=Blue Yodel No. 9
TTITLE8=Time Changes Everything
TTITLE9=I'llTell The World That I Love You
TTITLE10=I Want To Be A Cowboy's Sweetheart
TTITLE11=Divorce Me
TTITLE12=With Tears In My Eyes
TTITLE13=Farewell Sweetheart Farewell
TTITLE14=Night Train To Menphis
TTITLE15=There's A Star Spangled Banner Waving Somewhere
TTITLE16=Daddy And Home
TTITLE17=It Makes NoDifference Now
EXTD=
EXTT0=
EXTT1=
EXTT2=
EXTT3=
EXTT4=
EXTT5=
EXTT6=
EXTT7=
EXTT8=
EXTT9=
EXTT10=
EXTT11=
EXTT12=
EXTT13=
EXTT14=
EXTT15=
EXTT16=
EXTT17=
PLAYORDER=
